<?xml version="1.0" standalone="no"?>
<!DOCTYPE svg PUBLIC "-//W3C//DTD SVG 20010904//EN"
 "http://www.w3.org/TR/2001/REC-SVG-20010904/DTD/svg10.dtd">
<svg version="1.0" xmlns="http://www.w3.org/2000/svg"
 width="500.000000pt" height="500.000000pt" viewBox="0 0 500.000000 500.000000"
 preserveAspectRatio="xMidYMid meet">
<metadata>
Created by potrace 1.11, written by Peter Selinger 2001-2013
</metadata>
<g transform="translate(0.000000,500.000000) scale(0.100000,-0.100000)"
fill="#000000" stroke="none">
<path d="M1696 3283 c-39 -76 -137 -134 -238 -141 l-68 -5 0 -1078 c0 -760 3
-1094 11 -1131 23 -109 77 -187 161 -233 l53 -30 690 0 c689 0 690 0 730 22
41 22 100 79 127 124 49 78 48 58 48 1221 0 1029 -1 1088 -17 1088 -39 0 -95
23 -138 55 -25 19 -47 35 -50 35 -3 0 -5 -108 -5 -240 0 -273 -3 -287 -81
-353 -108 -93 -273 -60 -339 68 -25 49 -25 50 -25 312 0 145 -1 263 -3 263 -2
0 -18 -11 -36 -25 -73 -55 -195 -98 -316 -110 -142 -14 -334 49 -443 145 l-46
41 -15 -28z"/>
</g>
</svg>
